<mxfile host="Electron" modified="2023-09-14T08:07:18.862Z" agent="Mozilla/5.0 (Windows NT 10.0; Win64; x64) AppleWebKit/537.36 (KHTML, like Gecko) draw.io/21.6.8 Chrome/114.0.5735.289 Electron/25.5.0 Safari/537.36" etag="ZTacV6C7gDcikCKh-DsM" version="21.6.8" type="device">
  <diagram name="Страница — 1" id="nmwYlNAqHAz0iBwmK8kU">
    <mxGraphModel dx="859" dy="532" grid="1" gridSize="10" guides="1" tooltips="1" connect="1" arrows="1" fold="1" page="1" pageScale="1" pageWidth="827" pageHeight="1169" math="0" shadow="0">
      <root>
        <mxCell id="0" />
        <mxCell id="1" parent="0" />
        <mxCell id="DBoz5KSYcVFiYWjzBrVx-3" style="edgeStyle=orthogonalEdgeStyle;rounded=0;orthogonalLoop=1;jettySize=auto;html=1;exitX=0.5;exitY=0.5;exitDx=0;exitDy=0;exitPerimeter=0;entryX=0;entryY=0.5;entryDx=0;entryDy=0;" edge="1" parent="1" source="tDO6yDNG7WM1HsC9Acc8-2" target="DBoz5KSYcVFiYWjzBrVx-1">
          <mxGeometry relative="1" as="geometry" />
        </mxCell>
        <mxCell id="DBoz5KSYcVFiYWjzBrVx-5" style="edgeStyle=orthogonalEdgeStyle;rounded=0;orthogonalLoop=1;jettySize=auto;html=1;exitX=0.5;exitY=0.5;exitDx=0;exitDy=0;exitPerimeter=0;entryX=1;entryY=0.5;entryDx=0;entryDy=0;" edge="1" parent="1" source="tDO6yDNG7WM1HsC9Acc8-2" target="DBoz5KSYcVFiYWjzBrVx-4">
          <mxGeometry relative="1" as="geometry" />
        </mxCell>
        <mxCell id="DBoz5KSYcVFiYWjzBrVx-7" style="edgeStyle=orthogonalEdgeStyle;rounded=0;orthogonalLoop=1;jettySize=auto;html=1;exitX=0.5;exitY=0;exitDx=0;exitDy=0;exitPerimeter=0;entryX=0.5;entryY=1;entryDx=0;entryDy=0;" edge="1" parent="1" source="tDO6yDNG7WM1HsC9Acc8-2" target="DBoz5KSYcVFiYWjzBrVx-6">
          <mxGeometry relative="1" as="geometry" />
        </mxCell>
        <mxCell id="DBoz5KSYcVFiYWjzBrVx-9" style="edgeStyle=orthogonalEdgeStyle;rounded=0;orthogonalLoop=1;jettySize=auto;html=1;exitX=0.75;exitY=0.1;exitDx=0;exitDy=0;exitPerimeter=0;" edge="1" parent="1" source="tDO6yDNG7WM1HsC9Acc8-2" target="DBoz5KSYcVFiYWjzBrVx-8">
          <mxGeometry relative="1" as="geometry" />
        </mxCell>
        <mxCell id="tDO6yDNG7WM1HsC9Acc8-2" value="Клиент" style="shape=umlActor;verticalLabelPosition=bottom;verticalAlign=top;html=1;outlineConnect=0;labelPosition=center;align=center;" parent="1" vertex="1">
          <mxGeometry x="190" y="340" width="30" height="60" as="geometry" />
        </mxCell>
        <mxCell id="DBoz5KSYcVFiYWjzBrVx-11" style="edgeStyle=orthogonalEdgeStyle;rounded=0;orthogonalLoop=1;jettySize=auto;html=1;exitX=0.5;exitY=0.5;exitDx=0;exitDy=0;exitPerimeter=0;entryX=0;entryY=0.5;entryDx=0;entryDy=0;" edge="1" parent="1" source="tDO6yDNG7WM1HsC9Acc8-3" target="DBoz5KSYcVFiYWjzBrVx-10">
          <mxGeometry relative="1" as="geometry" />
        </mxCell>
        <mxCell id="DBoz5KSYcVFiYWjzBrVx-13" style="edgeStyle=orthogonalEdgeStyle;rounded=0;orthogonalLoop=1;jettySize=auto;html=1;exitX=0.5;exitY=0.5;exitDx=0;exitDy=0;exitPerimeter=0;entryX=1;entryY=0.5;entryDx=0;entryDy=0;" edge="1" parent="1" source="tDO6yDNG7WM1HsC9Acc8-3" target="DBoz5KSYcVFiYWjzBrVx-12">
          <mxGeometry relative="1" as="geometry" />
        </mxCell>
        <mxCell id="DBoz5KSYcVFiYWjzBrVx-15" style="edgeStyle=orthogonalEdgeStyle;rounded=0;orthogonalLoop=1;jettySize=auto;html=1;exitX=0.5;exitY=0;exitDx=0;exitDy=0;exitPerimeter=0;entryX=0.5;entryY=1;entryDx=0;entryDy=0;" edge="1" parent="1" source="tDO6yDNG7WM1HsC9Acc8-3" target="DBoz5KSYcVFiYWjzBrVx-14">
          <mxGeometry relative="1" as="geometry" />
        </mxCell>
        <mxCell id="tDO6yDNG7WM1HsC9Acc8-3" value="Туроператор" style="shape=umlActor;verticalLabelPosition=bottom;verticalAlign=top;html=1;outlineConnect=0;" parent="1" vertex="1">
          <mxGeometry x="430" y="540" width="30" height="60" as="geometry" />
        </mxCell>
        <mxCell id="DBoz5KSYcVFiYWjzBrVx-18" style="edgeStyle=orthogonalEdgeStyle;rounded=0;orthogonalLoop=1;jettySize=auto;html=1;exitX=0.5;exitY=0.5;exitDx=0;exitDy=0;exitPerimeter=0;entryX=0;entryY=0.5;entryDx=0;entryDy=0;" edge="1" parent="1" source="tDO6yDNG7WM1HsC9Acc8-4" target="DBoz5KSYcVFiYWjzBrVx-16">
          <mxGeometry relative="1" as="geometry" />
        </mxCell>
        <mxCell id="DBoz5KSYcVFiYWjzBrVx-20" style="edgeStyle=orthogonalEdgeStyle;rounded=0;orthogonalLoop=1;jettySize=auto;html=1;exitX=0.5;exitY=0.5;exitDx=0;exitDy=0;exitPerimeter=0;entryX=1;entryY=0.5;entryDx=0;entryDy=0;" edge="1" parent="1" source="tDO6yDNG7WM1HsC9Acc8-4" target="DBoz5KSYcVFiYWjzBrVx-19">
          <mxGeometry relative="1" as="geometry" />
        </mxCell>
        <mxCell id="tDO6yDNG7WM1HsC9Acc8-4" value="Турагент" style="shape=umlActor;verticalLabelPosition=bottom;verticalAlign=top;html=1;outlineConnect=0;" parent="1" vertex="1">
          <mxGeometry x="582" y="290" width="30" height="60" as="geometry" />
        </mxCell>
        <mxCell id="DBoz5KSYcVFiYWjzBrVx-1" value="Поиск тура" style="ellipse;whiteSpace=wrap;html=1;" vertex="1" parent="1">
          <mxGeometry x="280" y="330" width="120" height="80" as="geometry" />
        </mxCell>
        <mxCell id="DBoz5KSYcVFiYWjzBrVx-4" value="Оставить пожелание на сайте" style="ellipse;whiteSpace=wrap;html=1;" vertex="1" parent="1">
          <mxGeometry x="30" y="330" width="120" height="80" as="geometry" />
        </mxCell>
        <mxCell id="DBoz5KSYcVFiYWjzBrVx-6" value="Бронирование тура" style="ellipse;whiteSpace=wrap;html=1;" vertex="1" parent="1">
          <mxGeometry x="70" y="210" width="120" height="80" as="geometry" />
        </mxCell>
        <mxCell id="DBoz5KSYcVFiYWjzBrVx-8" value="Просмотр информации о туре" style="ellipse;whiteSpace=wrap;html=1;" vertex="1" parent="1">
          <mxGeometry x="220" y="200" width="120" height="80" as="geometry" />
        </mxCell>
        <mxCell id="DBoz5KSYcVFiYWjzBrVx-10" value="Формирование тура" style="ellipse;whiteSpace=wrap;html=1;" vertex="1" parent="1">
          <mxGeometry x="510" y="530" width="120" height="80" as="geometry" />
        </mxCell>
        <mxCell id="DBoz5KSYcVFiYWjzBrVx-12" value="Добавление тура" style="ellipse;whiteSpace=wrap;html=1;" vertex="1" parent="1">
          <mxGeometry x="270" y="530" width="120" height="80" as="geometry" />
        </mxCell>
        <mxCell id="DBoz5KSYcVFiYWjzBrVx-14" value="Прогнозирование продаж" style="ellipse;whiteSpace=wrap;html=1;" vertex="1" parent="1">
          <mxGeometry x="385" y="430" width="120" height="80" as="geometry" />
        </mxCell>
        <mxCell id="DBoz5KSYcVFiYWjzBrVx-16" value="Реализация продукта" style="ellipse;whiteSpace=wrap;html=1;" vertex="1" parent="1">
          <mxGeometry x="650" y="280" width="120" height="80" as="geometry" />
        </mxCell>
        <mxCell id="DBoz5KSYcVFiYWjzBrVx-19" value="Оформление договора" style="ellipse;whiteSpace=wrap;html=1;" vertex="1" parent="1">
          <mxGeometry x="430" y="280" width="120" height="80" as="geometry" />
        </mxCell>
      </root>
    </mxGraphModel>
  </diagram>
</mxfile>
